{
  "accessors": [
    {
      "bufferView": 2,
      "componentType": 5126,
      "count": 65532,
      "max": [
        5.298861980438232,
        3.822969913482666,
        4.365040302276611
      ],
      "min": [
        -3.644336462020874,
        -5.062868118286133,
        -4.097076416015625
      ],
      "type": "VEC3"
    },
    {
      "bufferView": 2,
      "byteOffset": 786384,
      "componentType": 5126,
      "count": 65532,
      "max": [
        0.9999938011169434,
        0.9999711513519287,
        0.9998834133148193
      ],
      "min": [
        -0.9999998807907104,
        -0.9998077154159546,
        -0.9997050166130066
      ],
      "type": "VEC3"
    },
    {
      "bufferView": 1,
      "componentType": 5126,
      "count": 65532,
      "max": [
        0.999894380569458,
        0.9860637187957764
      ],
      "min": [
        0.00019321749277878553,
        0.0006635989993810654
      ],
      "type": "VEC2"
    },
    {
      "bufferView": 1,
      "byteOffset": 524256,
      "componentType": 5126,
      "count": 65532,
      "max": [
        0.999894380569458,
        0.9860637187957764
      ],
      "min": [
        0.00019321749277878553,
        0.0006635989993810654
      ],
      "type": "VEC2"
    },
    {
      "bufferView": 0,
      "componentType": 5125,
      "count": 355014,
      "type": "SCALAR"
    },
    {
      "bufferView": 2,
      "byteOffset": 1572768,
      "componentType": 5126,
      "count": 39110,
      "max": [
        5.372249603271484,
        3.822969913482666,
        4.343744277954102
      ],
      "min": [
        -3.6489593982696533,
        -5.061093330383301,
        -4.097076416015625
      ],
      "type": "VEC3"
    },
    {
      "bufferView": 2,
      "byteOffset": 2042088,
      "componentType": 5126,
      "count": 39110,
      "max": [
        0.9999860525131226,
        0.9999826550483704,
        0.9998518824577332
      ],
      "min": [
        -0.9999843239784241,
        -0.9999209642410278,
        -0.9997050166130066
      ],
      "type": "VEC3"
    },
    {
      "bufferView": 1,
      "byteOffset": 1048512,
      "componentType": 5126,
      "count": 39110,
      "max": [
        0.9999945163726807,
        0.9954321384429932
      ],
      "min": [
        0.0001971813471755013,
        0.00012315670028328896
      ],
      "type": "VEC2"
    },
    {
      "bufferView": 1,
      "byteOffset": 1361392,
      "componentType": 5126,
      "count": 39110,
      "max": [
        0.9999945163726807,
        0.9954321384429932
      ],
      "min": [
        0.0001971813471755013,
        0.00012315670028328896
      ],
      "type": "VEC2"
    },
    {
      "bufferView": 0,
      "byteOffset": 1420056,
      "componentType": 5125,
      "count": 177879,
      "type": "SCALAR"
    },
    {
      "bufferView": 2,
      "byteOffset": 2511408,
      "componentType": 5126,
      "count": 65532,
      "max": [
        4.5491180419921875,
        3.76411771774292,
        3.675884962081909
      ],
      "min": [
        -3.386772871017456,
        -5.700509071350098,
        -3.930405616760254
      ],
      "type": "VEC3"
    },
    {
      "bufferView": 2,
      "byteOffset": 3297792,
      "componentType": 5126,
      "count": 65532,
      "max": [
        0.9999952912330627,
        0.9999562501907349,
        0.9999203681945801
      ],
      "min": [
        -0.9999412894248962,
        -0.9997035264968872,
        -0.999890148639679
      ],
      "type": "VEC3"
    },
    {
      "bufferView": 1,
      "byteOffset": 1674272,
      "componentType": 5126,
      "count": 65532,
      "max": [
        0.9978237748146057,
        0.9949390888214111
      ],
      "min": [
        7.038515468593687e-05,
        8.551403880119324e-05
      ],
      "type": "VEC2"
    },
    {
      "bufferView": 1,
      "byteOffset": 2198528,
      "componentType": 5126,
      "count": 65532,
      "max": [
        0.9978237748146057,
        0.9949390888214111
      ],
      "min": [
        7.038515468593687e-05,
        8.551403880119324e-05
      ],
      "type": "VEC2"
    },
    {
      "bufferView": 0,
      "byteOffset": 2131572,
      "componentType": 5125,
      "count": 350967,
      "type": "SCALAR"
    },
    {
      "bufferView": 2,
      "byteOffset": 4084176,
      "componentType": 5126,
      "count": 33155,
      "max": [
        4.678163528442383,
        3.743557929992676,
        4.310296535491943
      ],
      "min": [
        -3.4651167392730713,
        -5.711887359619141,
        -4.126589775085449
      ],
      "type": "VEC3"
    },
    {
      "bufferView": 2,
      "byteOffset": 4482036,
      "componentType": 5126,
      "count": 33155,
      "max": [
        0.9999952912330627,
        0.9998260736465454,
        0.9997250437736511
      ],
      "min": [
        -0.9999412894248962,
        -0.9994649887084961,
        -0.9996000528335571
      ],
      "type": "VEC3"
    },
    {
      "bufferView": 1,
      "byteOffset": 2722784,
      "componentType": 5126,
      "count": 33155,
      "max": [
        0.9999473094940186,
        0.9920496940612793
      ],
      "min": [
        1.5215839994198177e-05,
        0.000567752867937088
      ],
      "type": "VEC2"
    },
    {
      "bufferView": 1,
      "byteOffset": 2988024,
      "componentType": 5126,
      "count": 33155,
      "max": [
        0.9999473094940186,
        0.9920496940612793
      ],
      "min": [
        1.5215839994198177e-05,
        0.000567752867937088
      ],
      "type": "VEC2"
    },
    {
      "bufferView": 0,
      "byteOffset": 3535440,
      "componentType": 5125,
      "count": 142191,
      "type": "SCALAR"
    }
  ],
  "asset": {
    "extras": {
      "author": "matousekfoto (https://sketchfab.com/matousekfoto)",
      "license": "CC-BY-4.0 (http://creativecommons.org/licenses/by/4.0/)",
      "source": "https://sketchfab.com/3d-models/aspen-treen-stumps-logs-stack-1b9af771bc6d4f4d8c4671cf61ba851d",
      "title": "Aspen treen stumps logs stack"
    },
    "generator": "Sketchfab-15.30.0",
    "version": "2.0"
  },
  "bufferViews": [
    {
      "buffer": 0,
      "byteLength": 4104204,
      "name": "floatBufferViews",
      "target": 34963
    },
    {
      "buffer": 0,
      "byteLength": 3253264,
      "byteOffset": 4104204,
      "byteStride": 8,
      "name": "floatBufferViews",
      "target": 34962
    },
    {
      "buffer": 0,
      "byteLength": 4879896,
      "byteOffset": 7357468,
      "byteStride": 12,
      "name": "floatBufferViews",
      "target": 34962
    }
  ],
  "buffers": [
    {
      "byteLength": 12237364,
      "uri": "scene.bin"
    }
  ],
  "extensionsUsed": [
    "KHR_materials_unlit"
  ],
  "images": [
    {
      "uri": "textures/material1_baseColor.jpeg"
    },
    {
      "uri": "textures/material0_baseColor.jpeg"
    }
  ],
  "materials": [
    {
      "doubleSided": true,
      "extensions": {
        "KHR_materials_unlit": {}
      },
      "name": "material1",
      "pbrMetallicRoughness": {
        "baseColorTexture": {
          "index": 0
        },
        "metallicFactor": 0.0
      }
    },
    {
      "doubleSided": true,
      "extensions": {
        "KHR_materials_unlit": {}
      },
      "name": "material0",
      "pbrMetallicRoughness": {
        "baseColorTexture": {
          "index": 1
        },
        "metallicFactor": 0.0
      }
    }
  ],
  "meshes": [
    {
      "name": "Model_material1_0",
      "primitives": [
        {
          "attributes": {
            "NORMAL": 1,
            "POSITION": 0,
            "TEXCOORD_0": 2,
            "TEXCOORD_1": 3
          },
          "indices": 4,
          "material": 0,
          "mode": 4
        }
      ]
    },
    {
      "name": "Model_material1_0",
      "primitives": [
        {
          "attributes": {
            "NORMAL": 6,
            "POSITION": 5,
            "TEXCOORD_0": 7,
            "TEXCOORD_1": 8
          },
          "indices": 9,
          "material": 0,
          "mode": 4
        }
      ]
    },
    {
      "name": "Model_material0_0",
      "primitives": [
        {
          "attributes": {
            "NORMAL": 11,
            "POSITION": 10,
            "TEXCOORD_0": 12,
            "TEXCOORD_1": 13
          },
          "indices": 14,
          "material": 1,
          "mode": 4
        }
      ]
    },
    {
      "name": "Model_material0_0",
      "primitives": [
        {
          "attributes": {
            "NORMAL": 16,
            "POSITION": 15,
            "TEXCOORD_0": 17,
            "TEXCOORD_1": 18
          },
          "indices": 19,
          "material": 1,
          "mode": 4
        }
      ]
    }
  ],
  "nodes": [
    {
      "children": [
        1
      ],
      "matrix": [
        1.0,
        0.0,
        0.0,
        0.0,
        0.0,
        2.220446049250313e-16,
        -1.0,
        0.0,
        0.0,
        1.0,
        2.220446049250313e-16,
        0.0,
        0.0,
        0.0,
        0.0,
        1.0
      ],
      "name": "Sketchfab_model"
    },
    {
      "children": [
        2
      ],
      "matrix": [
        0.009999999776482582,
        0.0,
        0.0,
        0.0,
        0.0,
        0.0,
        0.009999999776482582,
        0.0,
        0.0,
        -0.009999999776482582,
        0.0,
        0.0,
        0.0,
        0.0,
        0.0,
        1.0
      ],
      "name": "stump-stack.fbx"
    },
    {
      "children": [
        3
      ],
      "name": "RootNode"
    },
    {
      "children": [
        4,
        5,
        6,
        7
      ],
      "matrix": [
        95.49474644594504,
        -15.852068898653538,
        -25.089147312274445,
        0.0,
        -13.612505116057399,
        51.72530916977978,
        -84.49373997969322,
        0.0,
        26.371444891965584,
        84.10234421776266,
        47.2370891502322,
        0.0,
        0.0,
        295.9334716796875,
        0.0,
        1.0
      ],
      "name": "Model"
    },
    {
      "mesh": 0,
      "name": "Model_material1_0"
    },
    {
      "mesh": 1,
      "name": "Model_material1_0"
    },
    {
      "mesh": 2,
      "name": "Model_material0_0"
    },
    {
      "mesh": 3,
      "name": "Model_material0_0"
    }
  ],
  "samplers": [
    {
      "magFilter": 9729,
      "minFilter": 9987,
      "wrapS": 10497,
      "wrapT": 10497
    }
  ],
  "scene": 0,
  "scenes": [
    {
      "name": "Sketchfab_Scene",
      "nodes": [
        0
      ]
    }
  ],
  "textures": [
    {
      "sampler": 0,
      "source": 0
    },
    {
      "sampler": 0,
      "source": 1
    }
  ]
}
